<?xml version="1.0" encoding="UTF-8"?>
<svg width="153px" height="82px" viewBox="0 0 153 82" version="1.1" xmlns="http://www.w3.org/2000/svg" xmlns:xlink="http://www.w3.org/1999/xlink">
    <!-- Generator: Sketch 41.2 (35397) - http://www.bohemiancoding.com/sketch -->
    <title>Logo</title>
    <desc>Created with Sketch.</desc>
    <defs></defs>
    <g id="Chemin-de-fer" stroke="none" stroke-width="1" fill="none" fill-rule="evenodd">
        <g id="1-–-Accueil-Copy-12" transform="translate(-111.000000, -99.000000)" fill="#FFFFFF">
            <g id="Group-2" transform="translate(111.000000, 98.000000)">
                <path d="M18.8427756,45.5172634 C18.648801,45.5472301 18.508214,45.7133824 18.510216,45.9106141 C18.5262323,47.4725939 18.5995659,54.0189196 18.735185,57.6597315 C18.8284648,60.1670733 18.8136349,62.6621762 18.8164526,65.1690729 C18.8186771,67.237743 18.2644111,69.3901568 17.4634504,71.3331001 C15.4133708,76.3063197 10.218842,76.2241337 5.85552682,74.3894861 C5.64546187,74.3010694 5.40825828,74.3994998 5.32847364,74.6090445 C4.91464643,75.6966002 4.50081922,76.7841559 4.08699202,77.8716374 C3.8205736,78.5719248 3.33949299,79.3819172 3.23079012,80.1218882 C3.21521877,80.2275878 3.03807611,80.4464786 3.06795827,80.5498787 C3.17072919,80.9062902 5.41426437,81.5352211 5.81874877,81.6705907 C11.7420168,83.6529951 18.6614806,82.3748835 22.6096339,77.4712401 C26.1247553,73.1053663 26.547777,67.7789247 26.4606516,62.2971604 C26.4137892,59.3482541 26.4368496,56.398161 26.4249858,53.4496997 L26.3902839,44.8379676 C26.3892458,44.586959 26.1616816,44.3921009 25.9146903,44.4303011 C23.4663548,44.8087426 21.3019369,45.1368933 18.8427756,45.5172634 Z M62.0543887,53.1119062 C64.1466593,64.8375101 58.3612348,75.5272584 45.9468635,77.4506936 C36.8336929,78.8626913 31.218441,73.6357927 29.7347136,65.3204643 C27.6425172,53.5948604 33.4277933,42.9051121 45.8422388,40.981677 C54.9554095,39.5696793 60.5706613,44.7965037 62.0543887,53.1119062 Z M53.8255225,55.7310299 C52.9502643,50.825903 50.5166103,47.3624438 46.0064795,48.0612477 C39.6366103,49.0482219 36.8548995,56.4881354 37.9635798,62.7013406 C38.838838,67.6064676 41.2260004,71.0771217 45.7361312,70.3783178 C52.1060004,69.3914178 54.9342028,61.9442351 53.8255225,55.7310299 Z M3.54399674,40.5000579 L5.6682257,34.9176379 C5.74890013,34.7057195 5.99070098,34.60766 6.20180402,34.7003789 C8.53713602,35.7253308 10.1972646,36.2025736 13.1524847,35.7446905 C15.3378126,35.4061553 18.3805289,33.4465226 18.7598025,27.0028552 L18.4342871,27.0532943 C16.3644096,28.5740328 13.963233,29.042152 12.6613939,29.2438341 C7.91887921,29.9786871 2.09319166,27.8568335 0.901167615,21.1765474 C-0.365821365,14.0757626 3.49446501,7.86085134 12.6541272,6.44158448 C19.2565287,5.41870949 24.723037,9.27640945 26.1733972,17.4048906 C28.56575,30.8122672 24.5687323,41.0809233 14.1071568,42.7018723 C10.7692522,43.2189471 7.57289861,42.7654404 3.7628113,41.0197288 C3.56453609,40.9289384 3.46777126,40.7004049 3.54399674,40.5000579 Z M18.3103837,20.735428 C18.1963421,19.0249496 18.1296077,18.6512553 17.929627,17.5300982 C17.4211112,14.6804383 15.5616694,13.0962059 12.5859099,13.5572785 C9.79619103,13.9895711 8.18032962,16.448254 8.63048998,18.9708759 C9.03883014,21.2599203 11.2320921,22.8402955 14.1612858,22.3864921 C15.4167816,22.1920049 17.1419391,21.6847212 18.3103837,20.735428 Z M62.0976177,13.3561156 C64.1898883,25.0816453 58.404538,35.7713936 45.9901667,37.6949029 C36.8769219,39.1068265 31.26167,33.8799279 29.7779427,25.5646737 C27.6857462,13.839144 33.4710965,3.14924734 45.885542,1.22588632 C54.9987126,-0.186111378 60.6138904,5.04071305 62.0976177,13.3561156 Z M53.8688257,15.9751651 C52.9935675,11.0701123 50.5599135,7.60665318 46.0497827,8.30545705 C39.6798393,9.2923571 36.8982769,16.7324189 38.006883,22.94555 C38.8820671,27.8506027 41.2692294,31.3213311 45.7793602,30.6225272 C52.1492294,29.635553 54.9774318,22.1884445 53.8688257,15.9751651 Z M65.2504457,61.0436749 L65.2504457,38.7571649 C65.2504457,38.4388053 65.462661,38.192618 65.7809097,38.1417339 L72.5175955,37.0643402 C72.8358443,37.0134561 73.0479854,37.1917731 73.0479854,37.5102069 L73.0479854,60.0089319 C73.0479854,64.307158 75.4349995,66.3663336 79.0950827,65.7809435 C82.7020751,65.2040094 85.089015,62.3814233 85.089015,58.0831973 L85.089015,35.5844723 C85.089015,35.2660384 85.3012303,35.0199254 85.6194791,34.9689671 L92.3560907,33.8916475 C92.6744136,33.8406892 92.8865548,34.0189321 92.8865548,34.33744 L92.8865548,56.6240242 C92.8865548,65.5916486 87.1577803,71.3896957 79.0950827,72.6791561 C70.9792943,73.9770724 65.2504457,70.0114477 65.2504457,61.0436749 Z M116.384688,66.1317919 C115.907315,66.2081923 115.748191,66.0743803 115.589066,65.7284275 L109.382845,53.5082239 L104.5558,54.2801644 C104.343585,54.3140625 104.237551,54.437119 104.237551,54.6494824 L104.237551,67.5437896 C104.237551,67.8622976 104.02541,68.1084106 103.707087,68.1592948 L96.9704754,69.2366885 C96.6522266,69.2875726 96.4400114,69.1092556 96.4400114,68.790896 L96.4400114,33.7691844 C96.4400114,33.4506764 96.6522266,33.2045633 96.9704754,33.1536792 L111.345502,30.8546212 C118.718612,29.6755334 123.598747,33.5115742 123.598747,40.0914271 C123.598747,44.7078644 121.158716,48.7595323 117.180384,51.1468587 L124.288336,64.2309801 C124.44746,64.5239718 124.288336,64.8677736 123.916996,64.9271878 L116.384688,66.1317919 Z M115.801208,41.3384593 C115.801208,38.632254 113.891641,37.1865808 110.921146,37.6615983 L104.5558,38.6796519 C104.343585,38.7135499 104.237551,38.8366065 104.237551,39.0488215 L104.237551,47.3798008 C104.237551,47.5920158 104.343585,47.6811743 104.5558,47.6472763 L110.921146,46.6292227 C113.891641,46.1542052 115.801208,44.0976998 115.801208,41.3384593 Z M124.606214,60.4657023 C124.394073,60.2873853 124.287965,59.9329766 124.553197,59.5721146 L128.584546,54.3109471 C128.796687,54.0117246 129.11501,53.9607663 129.380242,54.1306274 C131.767256,55.6591542 135.002983,56.9457959 138.822116,56.3350379 C142.588233,55.7327359 144.710015,53.6422583 144.710015,51.0952329 C144.710015,48.9727116 143.436946,47.8497744 139.140365,47.9531745 L137.230798,47.9932291 C129.910706,48.155821 125.826266,45.3598638 125.826266,38.9923001 C125.826266,32.359412 130.812361,27.1577329 138.609975,25.9106265 C143.383929,25.1471419 147.839634,25.8673082 150.86322,27.7184968 C151.181395,27.8799019 151.234486,28.083661 150.969328,28.497484 L147.733527,33.8437304 C147.521386,34.1429529 147.256228,34.2384904 146.990922,34.1216646 C144.232642,32.7586225 141.58047,32.2276769 138.609975,32.7026944 C135.427265,33.2117583 133.78293,35.1197651 133.78293,37.4014661 C133.78293,39.470878 135.268141,40.5599172 139.405597,40.4819591 L141.315238,40.4417562 C148.741438,40.2624008 152.666679,43.0306906 152.666679,49.5574341 C152.666679,56.0841777 147.839634,61.6849931 138.503868,63.1780642 C132.881127,64.0772892 127.417584,62.7223322 124.606214,60.4657023 Z" id="Logo"></path>
            </g>
        </g>
    </g>
</svg>